<svg xmlns="http://www.w3.org/2000/svg" xmlns:xlink="http://www.w3.org/1999/xlink" width="66" height="66" viewBox="0 0 66 66"><defs><style>.a{fill:url(#a);}.b{filter:url(#b);}</style><linearGradient id="a" x1="0.172" y1="0.134" x2="0.813" y2="0.86" gradientUnits="objectBoundingBox"><stop offset="0" stop-color="#fff"/><stop offset="1" stop-color="#e8e8e8"/></linearGradient><filter id="b" x="0" y="0" width="66" height="66" filterUnits="userSpaceOnUse"><feOffset dx="2" dy="3" input="SourceAlpha"/><feGaussianBlur stdDeviation="5" result="c"/><feFlood flood-opacity="0.2"/><feComposite operator="in" in2="c"/><feComposite in="SourceGraphic"/></filter></defs><g class="b" transform="matrix(1, 0, 0, 1, 0, 0)"><path class="a" d="M32.247,17.994,35.48,14.83a1.675,1.675,0,0,0-.75-2.836l-4.405-1.124,1.242-4.36a1.7,1.7,0,0,0-2.086-2.086L25.123,5.665,24,1.258a1.687,1.687,0,0,0-2.835-.75L18,3.767,14.837.508A1.687,1.687,0,0,0,12,1.258L10.877,5.665,6.518,4.423A1.7,1.7,0,0,0,4.433,6.509l1.242,4.36L1.27,11.994A1.675,1.675,0,0,0,.52,14.83l3.233,3.164L.52,21.159A1.675,1.675,0,0,0,1.27,24l4.405,1.124L4.433,29.48a1.7,1.7,0,0,0,2.086,2.086l4.359-1.242L12,34.73a1.672,1.672,0,0,0,2.835.75L18,32.246l3.163,3.234A1.679,1.679,0,0,0,24,34.73l1.124-4.407,4.359,1.242a1.7,1.7,0,0,0,2.086-2.086l-1.242-4.36L34.73,24a1.675,1.675,0,0,0,.75-2.836l-3.233-3.164Z" transform="translate(13 12)"/></g></svg>