<svg xmlns="http://www.w3.org/2000/svg" xmlns:xlink="http://www.w3.org/1999/xlink" width="75" height="57" viewBox="0 0 75 57"><defs><style>.a{fill:url(#a);}.b{filter:url(#b);}</style><linearGradient id="a" x1="0.204" y1="0.122" x2="0.852" y2="1.09" gradientUnits="objectBoundingBox"><stop offset="0" stop-color="#fff"/><stop offset="1" stop-color="#e8e8e8"/></linearGradient><filter id="b" x="0" y="0" width="75" height="57" filterUnits="userSpaceOnUse"><feOffset dx="2" dy="3" input="SourceAlpha"/><feGaussianBlur stdDeviation="5" result="c"/><feFlood flood-opacity="0.2"/><feComposite operator="in" in2="c"/><feComposite in="SourceGraphic"/></filter></defs><g class="b" transform="matrix(1, 0, 0, 1, 0, 0)"><path class="a" d="M43.758,10.772,24.145,4.746a5.617,5.617,0,0,0-3.29,0L1.242,10.772a1.655,1.655,0,0,0,0,3.206l3.419,1.05a5.541,5.541,0,0,0-1.257,3.3,2.17,2.17,0,0,0-.179,3.728l-1.8,8.077a1.125,1.125,0,0,0,1.1,1.369H6.472a1.125,1.125,0,0,0,1.1-1.369l-1.8-8.077a2.164,2.164,0,0,0-.127-3.693A3.317,3.317,0,0,1,7.1,15.779L20.855,20a5.623,5.623,0,0,0,3.29,0l19.614-6.026a1.656,1.656,0,0,0,0-3.206ZM24.806,22.155a7.871,7.871,0,0,1-4.612,0L10,19.022,9,27c0,2.486,6.044,4.5,13.5,4.5S36,29.486,36,27l-1-7.978-10.2,3.133Z" transform="translate(13 7.5)"/></g></svg>