<svg xmlns="http://www.w3.org/2000/svg" xmlns:xlink="http://www.w3.org/1999/xlink" width="24.26" height="18.865" viewBox="0 0 24.26 18.865"><defs><style>.a{fill:url(#a);}</style><linearGradient id="a" x1="0.078" x2="1" y2="1.284" gradientUnits="objectBoundingBox"><stop offset="0" stop-color="#fff"/><stop offset="1" stop-color="#dbdbdb"/></linearGradient></defs><path class="a" d="M11.807,7.148l-7.765,6.4v6.9a.674.674,0,0,0,.674.674l4.719-.012a.674.674,0,0,0,.67-.674V16.4a.674.674,0,0,1,.674-.674h2.7a.674.674,0,0,1,.674.674V20.43a.674.674,0,0,0,.674.676l4.718.013a.674.674,0,0,0,.674-.674V13.538L12.452,7.148A.513.513,0,0,0,11.807,7.148Zm12.265,4.347-3.521-2.9V2.759a.505.505,0,0,0-.505-.505H17.688a.505.505,0,0,0-.505.505V5.817l-3.771-3.1a2.022,2.022,0,0,0-2.569,0L.182,11.494a.505.505,0,0,0-.067.712l1.074,1.306a.505.505,0,0,0,.712.069l9.906-8.159a.513.513,0,0,1,.644,0l9.907,8.159a.505.505,0,0,0,.712-.067l1.074-1.306a.505.505,0,0,0-.072-.713Z" transform="translate(0.001 -2.254)"/></svg>