<svg xmlns="http://www.w3.org/2000/svg" width="29.997" height="26.017" viewBox="0 0 29.997 26.017"><defs><style>.a{fill:#fff;}</style></defs><g transform="translate(-6.777 3.374) rotate(-22)"><path class="a" d="M29.033,10.352l-6.691,6.816a.12.12,0,0,0,0,.174l4.683,4.987a.807.807,0,0,1,0,1.144.811.811,0,0,1-1.144,0L21.216,18.5a.128.128,0,0,0-.18,0L19.9,19.661a5.007,5.007,0,0,1-3.57,1.5,5.107,5.107,0,0,1-3.644-1.548L11.59,18.5a.128.128,0,0,0-.18,0L6.746,23.473a.811.811,0,0,1-1.144,0,.807.807,0,0,1,0-1.144l4.683-4.987a.132.132,0,0,0,0-.174l-6.7-6.816a.123.123,0,0,0-.211.087V24.077a2,2,0,0,0,1.99,1.99h21.89a2,2,0,0,0,1.99-1.99V10.439A.124.124,0,0,0,29.033,10.352Z" transform="translate(0 -0.282)"/><path class="a" d="M16.408,19.261a3.381,3.381,0,0,0,2.432-1.02L28.6,8.31a1.954,1.954,0,0,0-1.231-.435H5.457a1.942,1.942,0,0,0-1.231.435l9.757,9.931A3.381,3.381,0,0,0,16.408,19.261Z" transform="translate(-0.098)"/></g></svg>