<svg xmlns="http://www.w3.org/2000/svg" xmlns:xlink="http://www.w3.org/1999/xlink" width="25.69" height="25.684" viewBox="0 0 25.69 25.684"><defs><style>.a{fill:url(#a);}</style><linearGradient id="a" x1="0.035" y1="0.061" x2="1.024" y2="1.161" gradientUnits="objectBoundingBox"><stop offset="0" stop-color="#fff"/><stop offset="1" stop-color="#f9f9f9"/></linearGradient></defs><path class="a" d="M12.842,8.495a6.585,6.585,0,1,0,6.585,6.585A6.575,6.575,0,0,0,12.842,8.495Zm0,10.866a4.281,4.281,0,1,1,4.281-4.281,4.289,4.289,0,0,1-4.281,4.281Zm8.39-11.136A1.536,1.536,0,1,1,19.7,6.689,1.532,1.532,0,0,1,21.233,8.225Zm4.361,1.559A7.6,7.6,0,0,0,23.52,4.4a7.651,7.651,0,0,0-5.382-2.075c-2.121-.12-8.476-.12-10.6,0A7.64,7.64,0,0,0,2.16,4.4,7.626,7.626,0,0,0,.085,9.778c-.12,2.121-.12,8.476,0,10.6A7.6,7.6,0,0,0,2.16,25.757a7.661,7.661,0,0,0,5.382,2.075c2.121.12,8.476.12,10.6,0a7.6,7.6,0,0,0,5.382-2.075,7.651,7.651,0,0,0,2.075-5.382c.12-2.121.12-8.471,0-10.591ZM22.855,22.65a4.334,4.334,0,0,1-2.441,2.441c-1.691.671-5.7.516-7.571.516s-5.886.149-7.571-.516A4.334,4.334,0,0,1,2.83,22.65c-.671-1.691-.516-5.7-.516-7.571s-.149-5.886.516-7.571A4.334,4.334,0,0,1,5.272,5.067c1.691-.671,5.7-.516,7.571-.516s5.886-.149,7.571.516a4.334,4.334,0,0,1,2.441,2.441c.671,1.691.516,5.7.516,7.571S23.525,20.966,22.855,22.65Z" transform="translate(0.005 -2.238)"/></svg>