<svg xmlns="http://www.w3.org/2000/svg" xmlns:xlink="http://www.w3.org/1999/xlink" width="27.161" height="27.161" viewBox="0 0 27.161 27.161"><defs><style>.a{fill:url(#a);}</style><linearGradient id="a" y1="-0.085" x2="1.063" y2="1.102" gradientUnits="objectBoundingBox"><stop offset="0" stop-color="#fff"/><stop offset="1" stop-color="#f6f6f6"/></linearGradient></defs><path class="a" d="M23.14,23.146H19.118v-6.3c0-1.5-.031-3.437-2.1-3.437-2.1,0-2.417,1.635-2.417,3.326v6.413H10.583V10.186h3.864v1.767H14.5a4.239,4.239,0,0,1,3.814-2.094c4.075,0,4.829,2.682,4.829,6.174v7.114ZM6.04,8.412A2.336,2.336,0,1,1,8.376,6.075,2.334,2.334,0,0,1,6.04,8.412ZM8.057,23.146H4.023V10.186H8.057ZM25.153,0H2A1.98,1.98,0,0,0,0,1.957V25.2a1.979,1.979,0,0,0,2,1.957H25.149A1.987,1.987,0,0,0,27.161,25.2V1.957A1.988,1.988,0,0,0,25.149,0Z"/></svg>