<svg xmlns="http://www.w3.org/2000/svg" width="14.461" height="14.461" viewBox="0 0 14.461 14.461"><defs><style>.a{fill:#fff;}</style></defs><path class="a" d="M12.3,4.351A7.168,7.168,0,0,0,1.017,13L0,16.711l3.8-1a7.144,7.144,0,0,0,3.425.872h0a7.235,7.235,0,0,0,7.234-7.166A7.194,7.194,0,0,0,12.3,4.351ZM7.227,15.378a5.945,5.945,0,0,1-3.034-.83l-.216-.129-2.253.591.6-2.2-.142-.226A5.968,5.968,0,1,1,13.25,9.419a6.023,6.023,0,0,1-6.023,5.959Zm3.267-4.461c-.178-.09-1.059-.523-1.223-.581s-.284-.09-.4.09-.462.581-.568.7-.21.136-.387.045a4.874,4.874,0,0,1-2.437-2.13c-.184-.316.184-.294.526-.978a.332.332,0,0,0-.016-.313c-.045-.09-.4-.972-.552-1.33s-.294-.3-.4-.307-.223-.006-.342-.006a.663.663,0,0,0-.478.223,2.012,2.012,0,0,0-.626,1.495,3.508,3.508,0,0,0,.73,1.853,8,8,0,0,0,3.06,2.7,3.5,3.5,0,0,0,2.15.449,1.834,1.834,0,0,0,1.207-.852,1.5,1.5,0,0,0,.1-.852C10.791,11.049,10.671,11,10.494,10.917Z" transform="translate(0 -2.25)"/></svg>