<svg xmlns="http://www.w3.org/2000/svg" xmlns:xlink="http://www.w3.org/1999/xlink" width="60" height="58.5" viewBox="0 0 60 58.5"><defs><style>.a{fill:url(#a);}.b{filter:url(#b);}</style><linearGradient id="a" x1="0.248" y1="0.254" x2="1.074" y2="1.064" gradientUnits="objectBoundingBox"><stop offset="0" stop-color="#fff"/><stop offset="1" stop-color="#e8e8e8"/></linearGradient><filter id="b" x="0" y="0" width="60" height="58.5" filterUnits="userSpaceOnUse"><feOffset dx="2" dy="3" input="SourceAlpha"/><feGaussianBlur stdDeviation="5" result="c"/><feFlood flood-opacity="0.2"/><feComposite operator="in" in2="c"/><feComposite in="SourceGraphic"/></filter></defs><g class="b" transform="matrix(1, 0, 0, 1, 0, 0)"><path class="a" d="M30,9H24V6a2.99,2.99,0,0,0-3-3H15a2.99,2.99,0,0,0-3,3V9H6a2.977,2.977,0,0,0-2.985,3L3,28.5a2.99,2.99,0,0,0,3,3H30a2.99,2.99,0,0,0,3-3V12A2.99,2.99,0,0,0,30,9ZM21,9H15V6h6Z" transform="translate(10 9)"/></g></svg>